{"title":"OSU_VS_PSU_Big_Ten_Championship_First_Half_720p_20110313_TTL","uid":6241274,"size":1147002900,"categoryP":"video","categoryS":"hd___tv_shows","magnet":"?xt=urn:btih:3bcabe74aad76f94720048e1ae7054f9a5f3cffb&amp;dn=OSU_VS_PSU_Big_Ten_Championship_First_Half_720p_20110313_TTL&amp;tr=udp%3A%2F%2Ftracker.openbittorrent.com%3A80&amp;tr=udp%3A%2F%2Fopen.demonii.com%3A1337&amp;tr=udp%3A%2F%2Ftracker.coppersurfer.tk%3A6969&amp;tr=udp%3A%2F%2Fexodus.desync.com%3A6969","seeders":0,"leechers":1,"uploader":"thetorrentlord","files":2,"time":1300071990,"description":"OSU_VS_PSU_Big_Ten_Championship_First_Half_720p_20110313_TTL.avi\nFormat                           : AVI\nFormat/Info                      : Audio Video Interleave\nFormat profile                   : OpenDML\nFile size                        : 1.07 GiB\nDuration                         : 1h 7mn\nOverall bit rate                 : 2 249 Kbps\nMovie name                       : OSU_VS_PSU_Big_Ten_Championship_First_Half_720p_20110313_TTL.mpg\nDirector                         : created.with.SUPER(C).v2010.bld.37\nWriting application              : SUPER(C)   \n\nVideo\nID                               : 0\nFormat                           : MPEG-4 Visual\nFormat profile                   : Simple@L3\nFormat settings, BVOP            : No\nFormat settings, QPel            : No\nFormat settings, GMC             : No warppoints\nFormat settings, Matrix          : Default (H.263)\nCodec ID                         : XVID\nCodec ID/Hint                    : XviD\nDuration                         : 33mn 59s\nBit rate                         : 4 369 Kbps\nWidth                            : 1 280 pixels\nHeight                           : 720 pixels\nDisplay aspect ratio             : 16:9\nFrame rate                       : 29.970 fps\nColor space                      : YUV\nChroma subsampling               : 4:2:0\nBit depth                        : 8 bits\nScan type                        : Progressive\nBits/(Pixel*Frame)               : 0.158\nStream size                      : 1.04 GiB (97%)\nWriting library                  : XviD 1.1.2 (UTC 2006-11-01)\n\nAudio\nID                               : 1\nFormat                           : MPEG Audio\nFormat version                   : Version 2\nFormat profile                   : Layer 3\nMode                             : Joint stereo\nMode extension                   : MS Stereo\nCodec ID                         : 55\nCodec ID/Hint                    : MP3\nDuration                         : 1h 7mn\nBit rate mode                    : Constant\nBit rate                         : 112 Kbps\nChannel(s)                       : 2 channels\nSampling rate                    : 22.05 KHz\nStream size                      : 27.2 MiB (2%)\nAlignment                        : Aligned on interleaves\nInterleave, duration             : 26 ms (0.78 video frame)\nInterleave, preload duration     : 26 ms\nWriting library                  : LAME3.98\n\n","torrent":{"xt":"urn:btih:3bcabe74aad76f94720048e1ae7054f9a5f3cffb","amp;dn":"OSU_VS_PSU_Big_Ten_Championship_First_Half_720p_20110313_TTL","amp;tr":["udp%3A%2F%2Ftracker.openbittorrent.com%3A80","udp%3A%2F%2Fopen.demonii.com%3A1337","udp%3A%2F%2Ftracker.coppersurfer.tk%3A6969","udp%3A%2F%2Fexodus.desync.com%3A6969"],"infoHash":"3bcabe74aad76f94720048e1ae7054f9a5f3cffb","infoHashBuffer":{"type":"Buffer","data":[59,202,190,116,170,215,111,148,114,0,72,225,174,112,84,249,165,243,207,251]},"announce":[],"urlList":[]}}